<mxfile host="app.diagrams.net" agent="Mozilla/5.0 (Windows NT 10.0; Win64; x64) AppleWebKit/537.36 (KHTML, like Gecko) Chrome/135.0.0.0 Safari/537.36" version="26.2.13">
  <diagram name="Pagina-1" id="rowbROO9tggdLfGHLqFX">
    <mxGraphModel dx="1428" dy="743" grid="1" gridSize="10" guides="1" tooltips="1" connect="1" arrows="1" fold="1" page="1" pageScale="1" pageWidth="827" pageHeight="1169" math="0" shadow="0">
      <root>
        <mxCell id="0" />
        <mxCell id="1" parent="0" />
        <mxCell id="XP9XV6OORG-uneHlBBOF-1" value="Passeggero" style="shape=umlActor;verticalLabelPosition=bottom;verticalAlign=top;html=1;outlineConnect=0;" vertex="1" parent="1">
          <mxGeometry x="60" y="160" width="30" height="60" as="geometry" />
        </mxCell>
        <mxCell id="XP9XV6OORG-uneHlBBOF-2" value="Autista" style="shape=umlActor;verticalLabelPosition=bottom;verticalAlign=top;html=1;outlineConnect=0;" vertex="1" parent="1">
          <mxGeometry x="110" y="545" width="30" height="60" as="geometry" />
        </mxCell>
        <mxCell id="XP9XV6OORG-uneHlBBOF-3" value="" style="rounded=0;whiteSpace=wrap;html=1;" vertex="1" parent="1">
          <mxGeometry x="160" y="130" width="430" height="540" as="geometry" />
        </mxCell>
        <mxCell id="XP9XV6OORG-uneHlBBOF-4" value="Ricerca_viaggio" style="ellipse;whiteSpace=wrap;html=1;" vertex="1" parent="1">
          <mxGeometry x="440" y="150" width="120" height="40" as="geometry" />
        </mxCell>
        <mxCell id="XP9XV6OORG-uneHlBBOF-5" value="&lt;font style=&quot;font-size: 10px;&quot;&gt;Visualizza_prenotazione&lt;/font&gt;" style="ellipse;whiteSpace=wrap;html=1;" vertex="1" parent="1">
          <mxGeometry x="440" y="200" width="120" height="40" as="geometry" />
        </mxCell>
        <mxCell id="XP9XV6OORG-uneHlBBOF-6" value="Valuta_viaggio" style="ellipse;whiteSpace=wrap;html=1;" vertex="1" parent="1">
          <mxGeometry x="440" y="250" width="120" height="40" as="geometry" />
        </mxCell>
        <mxCell id="XP9XV6OORG-uneHlBBOF-7" value="Visualizza_voti" style="ellipse;whiteSpace=wrap;html=1;" vertex="1" parent="1">
          <mxGeometry x="440" y="300" width="120" height="40" as="geometry" />
        </mxCell>
        <mxCell id="XP9XV6OORG-uneHlBBOF-8" value="Accesso" style="ellipse;whiteSpace=wrap;html=1;" vertex="1" parent="1">
          <mxGeometry x="200" y="380" width="120" height="40" as="geometry" />
        </mxCell>
        <mxCell id="XP9XV6OORG-uneHlBBOF-9" value="Aggiungi_recensioni" style="ellipse;whiteSpace=wrap;html=1;" vertex="1" parent="1">
          <mxGeometry x="440" y="565" width="120" height="40" as="geometry" />
        </mxCell>
        <mxCell id="XP9XV6OORG-uneHlBBOF-10" value="Chiudi_prenotazioni" style="ellipse;whiteSpace=wrap;html=1;" vertex="1" parent="1">
          <mxGeometry x="440" y="520" width="120" height="40" as="geometry" />
        </mxCell>
        <mxCell id="XP9XV6OORG-uneHlBBOF-11" value="&lt;font style=&quot;font-size: 11px;&quot;&gt;Accetta_prenotazioni&lt;/font&gt;" style="ellipse;whiteSpace=wrap;html=1;" vertex="1" parent="1">
          <mxGeometry x="440" y="470" width="120" height="40" as="geometry" />
        </mxCell>
        <mxCell id="XP9XV6OORG-uneHlBBOF-12" value="Aggiungi_viaggio" style="ellipse;whiteSpace=wrap;html=1;" vertex="1" parent="1">
          <mxGeometry x="440" y="420" width="120" height="40" as="geometry" />
        </mxCell>
        <mxCell id="XP9XV6OORG-uneHlBBOF-13" value="&lt;font style=&quot;font-size: 11px;&quot;&gt;Visualizza_recensioni&lt;/font&gt;" style="ellipse;whiteSpace=wrap;html=1;" vertex="1" parent="1">
          <mxGeometry x="440" y="620" width="120" height="40" as="geometry" />
        </mxCell>
        <mxCell id="XP9XV6OORG-uneHlBBOF-14" value="" style="endArrow=none;html=1;rounded=0;exitX=1;exitY=0.5;exitDx=0;exitDy=0;entryX=0;entryY=0.5;entryDx=0;entryDy=0;" edge="1" parent="1" source="XP9XV6OORG-uneHlBBOF-8" target="XP9XV6OORG-uneHlBBOF-4">
          <mxGeometry width="50" height="50" relative="1" as="geometry">
            <mxPoint x="390" y="410" as="sourcePoint" />
            <mxPoint x="440" y="360" as="targetPoint" />
          </mxGeometry>
        </mxCell>
        <mxCell id="XP9XV6OORG-uneHlBBOF-15" value="" style="endArrow=none;html=1;rounded=0;entryX=0;entryY=0.5;entryDx=0;entryDy=0;" edge="1" parent="1" target="XP9XV6OORG-uneHlBBOF-5">
          <mxGeometry width="50" height="50" relative="1" as="geometry">
            <mxPoint x="320" y="400" as="sourcePoint" />
            <mxPoint x="450" y="180" as="targetPoint" />
          </mxGeometry>
        </mxCell>
        <mxCell id="XP9XV6OORG-uneHlBBOF-16" value="" style="endArrow=none;html=1;rounded=0;entryX=0;entryY=0.5;entryDx=0;entryDy=0;exitX=1;exitY=0.5;exitDx=0;exitDy=0;" edge="1" parent="1" source="XP9XV6OORG-uneHlBBOF-8" target="XP9XV6OORG-uneHlBBOF-6">
          <mxGeometry width="50" height="50" relative="1" as="geometry">
            <mxPoint x="330" y="410" as="sourcePoint" />
            <mxPoint x="450" y="230" as="targetPoint" />
          </mxGeometry>
        </mxCell>
        <mxCell id="XP9XV6OORG-uneHlBBOF-17" value="" style="endArrow=none;html=1;rounded=0;entryX=0;entryY=0.5;entryDx=0;entryDy=0;exitX=1;exitY=0.5;exitDx=0;exitDy=0;" edge="1" parent="1" source="XP9XV6OORG-uneHlBBOF-8" target="XP9XV6OORG-uneHlBBOF-7">
          <mxGeometry width="50" height="50" relative="1" as="geometry">
            <mxPoint x="330" y="410" as="sourcePoint" />
            <mxPoint x="450" y="280" as="targetPoint" />
          </mxGeometry>
        </mxCell>
        <mxCell id="XP9XV6OORG-uneHlBBOF-18" value="" style="endArrow=none;html=1;rounded=0;exitX=1;exitY=0.5;exitDx=0;exitDy=0;entryX=0;entryY=0.5;entryDx=0;entryDy=0;" edge="1" parent="1" source="XP9XV6OORG-uneHlBBOF-8" target="XP9XV6OORG-uneHlBBOF-12">
          <mxGeometry width="50" height="50" relative="1" as="geometry">
            <mxPoint x="330" y="410" as="sourcePoint" />
            <mxPoint x="450" y="330" as="targetPoint" />
          </mxGeometry>
        </mxCell>
        <mxCell id="XP9XV6OORG-uneHlBBOF-19" value="" style="endArrow=none;html=1;rounded=0;exitX=1;exitY=0.5;exitDx=0;exitDy=0;entryX=0;entryY=0.5;entryDx=0;entryDy=0;" edge="1" parent="1" source="XP9XV6OORG-uneHlBBOF-8" target="XP9XV6OORG-uneHlBBOF-11">
          <mxGeometry width="50" height="50" relative="1" as="geometry">
            <mxPoint x="330" y="410" as="sourcePoint" />
            <mxPoint x="450" y="450" as="targetPoint" />
          </mxGeometry>
        </mxCell>
        <mxCell id="XP9XV6OORG-uneHlBBOF-20" value="" style="endArrow=none;html=1;rounded=0;exitX=1;exitY=0.5;exitDx=0;exitDy=0;entryX=0;entryY=0.5;entryDx=0;entryDy=0;" edge="1" parent="1" source="XP9XV6OORG-uneHlBBOF-8" target="XP9XV6OORG-uneHlBBOF-10">
          <mxGeometry width="50" height="50" relative="1" as="geometry">
            <mxPoint x="330" y="410" as="sourcePoint" />
            <mxPoint x="450" y="500" as="targetPoint" />
          </mxGeometry>
        </mxCell>
        <mxCell id="XP9XV6OORG-uneHlBBOF-21" value="" style="endArrow=none;html=1;rounded=0;exitX=1;exitY=0.5;exitDx=0;exitDy=0;entryX=0;entryY=0.5;entryDx=0;entryDy=0;" edge="1" parent="1" source="XP9XV6OORG-uneHlBBOF-8" target="XP9XV6OORG-uneHlBBOF-9">
          <mxGeometry width="50" height="50" relative="1" as="geometry">
            <mxPoint x="330" y="410" as="sourcePoint" />
            <mxPoint x="450" y="550" as="targetPoint" />
          </mxGeometry>
        </mxCell>
        <mxCell id="XP9XV6OORG-uneHlBBOF-22" value="" style="endArrow=none;html=1;rounded=0;exitX=1;exitY=0.5;exitDx=0;exitDy=0;entryX=0;entryY=0.5;entryDx=0;entryDy=0;" edge="1" parent="1" source="XP9XV6OORG-uneHlBBOF-8" target="XP9XV6OORG-uneHlBBOF-13">
          <mxGeometry width="50" height="50" relative="1" as="geometry">
            <mxPoint x="330" y="410" as="sourcePoint" />
            <mxPoint x="450" y="595" as="targetPoint" />
          </mxGeometry>
        </mxCell>
        <mxCell id="XP9XV6OORG-uneHlBBOF-23" value="&lt;font style=&quot;font-size: 9px;&quot;&gt;Registrazione_passeggero&lt;/font&gt;" style="ellipse;whiteSpace=wrap;html=1;" vertex="1" parent="1">
          <mxGeometry x="220" y="170" width="120" height="40" as="geometry" />
        </mxCell>
        <mxCell id="XP9XV6OORG-uneHlBBOF-24" value="&lt;span style=&quot;font-size: 9px;&quot;&gt;Registrazione_autista&lt;/span&gt;" style="ellipse;whiteSpace=wrap;html=1;" vertex="1" parent="1">
          <mxGeometry x="220" y="555" width="120" height="40" as="geometry" />
        </mxCell>
        <mxCell id="XP9XV6OORG-uneHlBBOF-25" value="" style="endArrow=none;html=1;rounded=0;entryX=0;entryY=0.5;entryDx=0;entryDy=0;" edge="1" parent="1" target="XP9XV6OORG-uneHlBBOF-24">
          <mxGeometry width="50" height="50" relative="1" as="geometry">
            <mxPoint x="150" y="575" as="sourcePoint" />
            <mxPoint x="440" y="360" as="targetPoint" />
          </mxGeometry>
        </mxCell>
        <mxCell id="XP9XV6OORG-uneHlBBOF-26" value="" style="endArrow=none;html=1;rounded=0;entryX=0;entryY=0.5;entryDx=0;entryDy=0;" edge="1" parent="1" source="XP9XV6OORG-uneHlBBOF-1">
          <mxGeometry width="50" height="50" relative="1" as="geometry">
            <mxPoint x="150" y="190" as="sourcePoint" />
            <mxPoint x="220" y="190" as="targetPoint" />
          </mxGeometry>
        </mxCell>
        <mxCell id="XP9XV6OORG-uneHlBBOF-27" value="" style="endArrow=none;html=1;rounded=0;entryX=0.5;entryY=0;entryDx=0;entryDy=0;" edge="1" parent="1" target="XP9XV6OORG-uneHlBBOF-8">
          <mxGeometry width="50" height="50" relative="1" as="geometry">
            <mxPoint x="90" y="190" as="sourcePoint" />
            <mxPoint x="440" y="360" as="targetPoint" />
          </mxGeometry>
        </mxCell>
        <mxCell id="XP9XV6OORG-uneHlBBOF-28" value="" style="endArrow=none;html=1;rounded=0;entryX=0.5;entryY=1;entryDx=0;entryDy=0;" edge="1" parent="1" target="XP9XV6OORG-uneHlBBOF-8">
          <mxGeometry width="50" height="50" relative="1" as="geometry">
            <mxPoint x="150" y="575" as="sourcePoint" />
            <mxPoint x="270" y="390" as="targetPoint" />
          </mxGeometry>
        </mxCell>
      </root>
    </mxGraphModel>
  </diagram>
</mxfile>
